# xmcd
#
# Track frame offsets: 
#        150
#        9360
#        21653
#        33744
#        44008
#        53231
#        66030
#        77194
#        88670
#        102271
#        112209
#        124508
#
# Disc length: 1807 seconds
#
# Revision: 0
# Processed by: cddbd v1.5.2PL0 Copyright (c) Steve Scherf et al.
# Submitted via: ExactAudioCopy v1.0b3
#
DISCID=a5070d0c
DTITLE=Herschel Sizemore - B-Natural
DYEAR=2009
DGENRE=Bluegrass
TTITLE0=B-Natural
TTITLE1=Augusta Heritage
TTITLE2=Slidin' Back
TTITLE3=Charlotte's Reel
TTITLE4=Mayberry Flash
TTITLE5=Monroe's Dream
TTITLE6=Shootin' Creek
TTITLE7=White Oak
TTITLE8=Tamba's Waltz
TTITLE9=Alberta Clipper
TTITLE10=Derrington Express
TTITLE11=Crooked Road
EXTD=
EXTT0=
EXTT1=
EXTT2=
EXTT3=
EXTT4=
EXTT5=
EXTT6=
EXTT7=
EXTT8=
EXTT9=
EXTT10=
EXTT11=
PLAYORDER=
